<svg width="10" height="10" viewBox="0 0 10 10" fill="none" xmlns="http://www.w3.org/2000/svg">
<path d="M0.762544 0.0986943L4.99561 4.32861L9.18363 0.140753C9.46912 -0.113586 9.76523 0.0381721 9.88261 0.166211C10 0.29425 10.067 0.596251 9.85531 0.81243L5.66635 4.99935L9.85531 9.18447C10.0416 9.34076 10.0416 9.64704 9.89205 9.81766C9.74249 9.98828 9.46772 10.0874 9.2079 9.88503L4.99561 5.6701L0.778049 9.88671C0.593652 10.0521 0.288971 10.0185 0.138015 9.85394C-0.0129411 9.68933 -0.0702344 9.40445 0.122798 9.20342L4.32486 4.99935L0.139917 0.81243C-0.0127997 0.643289 -0.0661314 0.334871 0.139917 0.140753C0.345965 -0.0533636 0.653183 -0.0262762 0.762544 0.0986943Z" fill="#555555"/>
</svg>
