<svg width="31" height="30" viewBox="0 0 31 30" fill="none" xmlns="http://www.w3.org/2000/svg">
<path d="M15.074 0C6.78968 0 0.0739746 6.71571 0.0739746 15C0.0739746 23.2843 6.78968 30 15.074 30C23.3583 30 30.074 23.2843 30.074 15C30.074 6.71571 23.3583 0 15.074 0ZM15.074 27.0968C8.38857 27.0968 2.9772 21.6864 2.9772 15C2.9772 8.31466 8.38754 2.90323 15.074 2.90323C21.7594 2.90323 27.1707 8.31357 27.1707 15C27.1707 21.6854 21.7604 27.0968 15.074 27.0968ZM21.567 20.984C20.9855 21.5715 18.8131 23.4878 15.2727 23.4878C10.287 23.4878 6.77571 19.7726 6.77571 14.9253C6.77571 10.1379 10.4214 6.49379 15.2291 6.49379C18.5878 6.49379 20.5963 8.10387 21.1319 8.59736C21.2577 8.7131 21.3385 8.86967 21.3599 9.0393C21.3814 9.20894 21.3421 9.38068 21.249 9.52409L20.1509 11.2245C19.9185 11.5844 19.4271 11.6649 19.0925 11.4011C18.5726 10.9913 17.1682 10.038 15.3601 10.038C12.4386 10.038 10.6475 12.1749 10.6475 14.8816C10.6475 17.3971 12.2738 19.9436 15.382 19.9436C17.3572 19.9436 18.82 18.7921 19.3573 18.297C19.6761 18.0032 20.1797 18.0527 20.4351 18.4021L21.6367 20.0454C21.7391 20.1844 21.7884 20.3555 21.7756 20.5276C21.7628 20.6998 21.6888 20.8617 21.567 20.984Z" fill="white"/>
</svg>
