<svg width="55" height="55" viewBox="0 0 55 55" fill="none" xmlns="http://www.w3.org/2000/svg">
<path d="M39.6878 0.176925C42.4781 0.304272 44.4069 0.714281 46.192 1.40803C47.9778 2.10206 49.3303 2.98187 50.6743 4.32592C52.0182 5.66992 52.8979 7.02218 53.5922 8.80829C54.2858 10.5935 54.6957 12.5221 54.8231 15.3123C54.9808 18.7727 55 19.9924 55 27.4999C55 35.0076 54.9808 36.2274 54.8231 39.6877C54.6957 42.4779 54.2858 44.4064 53.592 46.1923C52.8978 47.9779 52.018 49.3303 50.6743 50.674C49.3304 52.018 47.9779 52.8979 46.1917 53.5921C44.4061 54.2858 42.4777 54.6957 39.6878 54.823C36.2282 54.9808 35.0088 55 27.5 55C19.9912 55 18.7718 54.9808 15.3123 54.823C12.5223 54.6957 10.5937 54.2858 8.80785 53.5919C7.02205 52.8979 5.66957 52.018 4.32581 50.6741C2.98186 49.3301 2.10196 47.9777 1.40781 46.1917C0.714182 44.4065 0.304264 42.4779 0.176926 39.6878C0.0191422 36.2296 0 35.0109 0 27.4999C0 19.9891 0.0191422 18.7704 0.176928 15.3121C0.304264 12.5221 0.714182 10.5935 1.40791 8.80803C2.1019 7.02236 2.98177 5.66995 4.32569 4.32604C5.66957 2.98201 7.02205 2.10215 8.80791 1.40803C10.5929 0.714305 12.5219 0.304274 15.3121 0.176925C18.7705 0.0191405 19.9891 0 27.5 0C35.0109 0 36.2296 0.0191408 39.6878 0.176925ZM27.5 6.11111C20.0741 6.11111 18.9384 6.12895 15.5907 6.28168C13.4662 6.37865 12.1906 6.6498 11.0217 7.10406C10.0237 7.49196 9.38954 7.90451 8.64701 8.64713C7.90433 9.38981 7.49176 10.0239 7.10408 11.0215C6.64973 12.1909 6.37865 13.4662 6.28169 15.5907C6.12895 18.9383 6.11111 20.0741 6.11111 27.4999C6.11111 34.9259 6.12895 36.0617 6.28168 39.4093C6.37865 41.5338 6.64973 42.8091 7.10395 43.9782C7.49178 44.976 7.90441 45.6103 8.64714 46.353C9.38954 47.0955 10.0237 47.508 11.0214 47.8958C12.191 48.3502 13.4663 48.6213 15.5908 48.7182C18.9397 48.871 20.0762 48.8889 27.5 48.8889C34.9238 48.8889 36.0603 48.871 39.4093 48.7182C41.5337 48.6213 42.8088 48.3503 43.9782 47.8959C44.9763 47.508 45.6105 47.0955 46.353 46.3529C47.0955 45.6104 47.5081 44.9761 47.8959 43.9785C48.3503 42.8091 48.6214 41.5337 48.7183 39.4093C48.871 36.0595 48.8889 34.9227 48.8889 27.4999C48.8889 20.0773 48.871 18.9405 48.7183 15.5907C48.6214 13.4662 48.3503 12.1909 47.8961 11.022C47.5081 10.0238 47.0955 9.38963 46.353 8.64701C45.6105 7.90453 44.9763 7.49198 43.9782 7.10409C42.8093 6.64977 41.5338 6.37865 39.4092 6.28168C36.0617 6.12895 34.9259 6.11111 27.5 6.11111ZM27.5 41.7593C19.6248 41.7593 13.2407 35.3752 13.2407 27.5C13.2407 19.6248 19.6248 13.2407 27.5 13.2407C35.3752 13.2407 41.7593 19.6248 41.7593 27.5C41.7593 35.3752 35.3752 41.7593 27.5 41.7593ZM27.5 35.6481C32.0001 35.6481 35.6481 32.0001 35.6481 27.5C35.6481 22.9999 32.0001 19.3519 27.5 19.3519C22.9999 19.3519 19.3519 22.9999 19.3519 27.5C19.3519 32.0001 22.9999 35.6481 27.5 35.6481ZM41.7593 16.2963C40.0717 16.2963 38.7037 14.9283 38.7037 13.2407C38.7037 11.5532 40.0717 10.1852 41.7593 10.1852C43.4468 10.1852 44.8148 11.5532 44.8148 13.2407C44.8148 14.9283 43.4468 16.2963 41.7593 16.2963Z" fill="white"/>
</svg>
