<svg width="50" height="50" viewBox="0 0 50 50" fill="none" xmlns="http://www.w3.org/2000/svg">
<path d="M39.5833 22.9167H27.0833V10.4167C27.0833 9.86417 26.8638 9.33427 26.4731 8.94357C26.0824 8.55287 25.5525 8.33337 24.9999 8.33337C24.4474 8.33337 23.9175 8.55287 23.5268 8.94357C23.1361 9.33427 22.9166 9.86417 22.9166 10.4167V22.9167H10.4166C9.86405 22.9167 9.33415 23.1362 8.94345 23.5269C8.55275 23.9176 8.33325 24.4475 8.33325 25C8.33325 25.5526 8.55275 26.0825 8.94345 26.4732C9.33415 26.8639 9.86405 27.0834 10.4166 27.0834H22.9166V39.5834C22.9166 40.1359 23.1361 40.6658 23.5268 41.0565C23.9175 41.4472 24.4474 41.6667 24.9999 41.6667C25.5525 41.6667 26.0824 41.4472 26.4731 41.0565C26.8638 40.6658 27.0833 40.1359 27.0833 39.5834V27.0834H39.5833C40.1358 27.0834 40.6657 26.8639 41.0564 26.4732C41.4471 26.0825 41.6666 25.5526 41.6666 25C41.6666 24.4475 41.4471 23.9176 41.0564 23.5269C40.6657 23.1362 40.1358 22.9167 39.5833 22.9167Z" fill="white"/>
</svg>
